<!--?xml version="1.0" encoding="utf-8"?-->
<!-- Generator: Adobe Illustrator 23.1.1, SVG Export Plug-In . SVG Version: 6.00 Build 0)  -->
<svg version="1.1" xmlns="http://www.w3.org/2000/svg" xmlns:xlink="http://www.w3.org/1999/xlink" x="0px" y="0px" viewBox="0 0 1650 1026.7" style="" xml:space="preserve">
<style type="text/css">
	.st0{fill:#FFFFFF;}
	.st1{fill:#999999;}
	.st2{fill:#B3DDF2;}
	.st3{fill:#CCCCCC;}
	.st4{fill:#FF0000;}
	.st5{fill:none;stroke:#555555;stroke-miterlimit:10;}
	.st6{fill:#555555;}
	.st7{font-family:'MrEavesModOT-Reg';}
	.st8{font-size:40px;}
</style>
<g id="flag">
	<path class="st0 DrEnCMzB_0" d="M1153.2,666.2L736.3,756.1L736.3,231.9L1153.2,142Z"></path>
	<path id="fold-shadow" class="st1 DrEnCMzB_1" d="M789.1,721.5l-52.9,34.9v-72.3C736.3,684.1,790.2,722.6,789.1,721.5z"></path>
	<path id="stripe-top-right" class="st2 DrEnCMzB_2" d="M1152.4,290.1L735.5,380L735.5,292.5L1152.4,202.5Z"></path>
	<path id="stripe-bottom-right" class="st2 DrEnCMzB_3" d="M1152.4,587.6L735.5,677.6L735.5,590L1152.4,500.1Z"></path>
	<path id="shadow" class="st3 DrEnCMzB_4" d="M736.5,232.6L835.5,210.5L835.5,735.3L736.5,756.4Z"></path>
	<path id="white-rect-left" class="st0 DrEnCMzB_5" d="M789.1,720.9L383.3,808.5L383.3,284.3L789.1,196.7Z"></path>
	<path id="stripe-top-left" class="st2 DrEnCMzB_6" d="M789.1,347.7L383.3,435.8L383.3,348.3L789.1,260.2Z"></path>
	<path id="stripe-bottom-left" class="st2 DrEnCMzB_7" d="M789.1,645.3L383.3,733.4L383.3,645.9L789.1,557.7Z"></path>
	<path id="star-1" class="st4 DrEnCMzB_8" d="M486.2,437.6L501.6,485.3L550.9,459.9L518,507.9L552,539.1L503.7,534.3L486.2,591.9L
		474,544.3L423.5,565.6L459.4,518.4L422.5,486.5L470.9,491.1Z"></path>
	<path id="star-2" class="st4 DrEnCMzB_9" d="M683.7,399.2L699.2,446.9L748.4,421.5L715.5,469.4L749.5,500.7L701.2,495.9L683.7,553.5L
		671.5,505.9L621,527.2L656.9,480L620,448.1L668.4,452.7Z"></path>
	<path id="star-3" class="st4 DrEnCMzB_10" d="M864,382.5L879.4,430.2L928.7,404.8L895.7,452.7L929.7,484L881.5,479.2L864,536.8L
		851.8,489.2L801.3,510.5L837.2,463.3L800.2,431.4L848.6,436Z"></path>
	<path id="star-4" class="st4 DrEnCMzB_11" d="M1061.5,344.1L1076.9,391.8L1126.2,366.4L1093.3,414.3L1127.2,445.5L1079,440.8L
		1061.5,498.4L1049.3,450.8L998.8,472.1L1034.7,424.9L997.8,393L1046.2,397.6Z"></path>
</g>
<g id="lines">
	<g id="west-line">
		<g>
			<path class="st5 DrEnCMzB_12" d="M1128,322.8L1205.4,322.8L1205.4,73"></path>
			<g>
				<path class="st6 DrEnCMzB_13" d="M1124.4,322.8A3.8,3.8 0,1,1 1132,322.8A3.8,3.8 0,1,1 1124.4,322.8"></path>
			</g>
		</g>
	</g>
	<g id="fire-line">
		<g>
			<path class="st5 DrEnCMzB_14" d="M485.6,462.5L321.9,462.5L321.9,898.7"></path>
			<g>
				<path class="st6 DrEnCMzB_15" d="M481.59999999999997,462.5A3.8,3.8 0,1,1 489.2,462.5A3.8,3.8 0,1,1 481.59999999999997,462.5"></path>
			</g>
		</g>
	</g>
	<g id="dearborn-line">
		<g>
			<path class="st5 DrEnCMzB_16" d="M683.1,424.8L230.7,424.8L230.7,947.2"></path>
			<g>
				<path class="st6 DrEnCMzB_17" d="M679.1,424.8A3.8,3.8 0,1,1 686.6999999999999,424.8A3.8,3.8 0,1,1 679.1,424.8"></path>
			</g>
		</g>
	</g>
	<g id="_x31_933-line">
		<g>
			<path class="st5 DrEnCMzB_18" d="M866.8,504.4L1340.5,504.4L1340.5,322.7"></path>
			<g>
				<path class="st6 DrEnCMzB_19" d="M863.2,504.4A3.8,3.8 0,1,1 870.8,504.4A3.8,3.8 0,1,1 863.2,504.4"></path>
			</g>
		</g>
	</g>
	<g id="_x31_893-line">
		<g>
			<path class="st5 DrEnCMzB_20" d="M1063.9,455.9L1271.9,455.9L1271.9,195.5"></path>
			<g>
				<path class="st6 DrEnCMzB_21" d="M1064.1,459.7c-2.1,0-3.8-1.7-3.8-3.8s1.7-3.8,3.8-3.8c2.1,0,3.8,1.7,3.8,3.8S1066.2,459.7,1064.1,459.7z"></path>
			</g>
		</g>
	</g>
	<g id="canal-line">
		<g>
			<path class="st5 DrEnCMzB_22" d="M1126.4,553.6L1344.3,553.6"></path>
			<g>
				<path class="st6 DrEnCMzB_23" d="M1122.8,553.6A3.8,3.8 0,1,1 1130.3999999999999,553.6A3.8,3.8 0,1,1 1122.8,553.6"></path>
			</g>
		</g>
	</g>
	<g id="river-line">
		<g>
			<path class="st5 DrEnCMzB_24" d="M412.6,379.1L228.7,379.1"></path>
			<g>
				<path class="st6 DrEnCMzB_25" d="M408.59999999999997,379.1A3.8,3.8 0,1,1 416.2,379.1A3.8,3.8 0,1,1 408.59999999999997,379.1"></path>
			</g>
		</g>
	</g>
	<g id="north-side-line">
		<g>
			<path class="st5 DrEnCMzB_26" d="M1020.5,182.1L1020.5,104.8"></path>
			<g>
				<path class="st6 DrEnCMzB_27" d="M1024.3,181.9c0,2.1-1.7,3.8-3.8,3.8s-3.8-1.7-3.8-3.8c0-2.1,1.7-3.8,3.8-3.8S1024.3,179.9,1024.3,181.9z"></path>
			</g>
		</g>
	</g>
	<g id="south-side-line">
		<g>
			<path class="st5 DrEnCMzB_28" d="M416.5,765.4L416.5,850.8"></path>
			<g>
				<path class="st6 DrEnCMzB_29" d="M412.7,765.6c0-2.1,1.7-3.8,3.8-3.8c2.1,0,3.8,1.7,3.8,3.8c0,2.1-1.7,3.8-3.8,3.8
					C414.4,769.3,412.7,767.6,412.7,765.6z"></path>
			</g>
		</g>
	</g>
</g>
<g id="text">
	<text transform="matrix(1 0 0 1 226.4134 994.1146)" class="st7 st8">Fort Dearborn</text>
	<text transform="matrix(1 0 0 1 313.9373 940.4945)" class="st7 st8">Chicago Fire</text>
	<text transform="matrix(1 0 0 1 408.7484 890.1088)" class="st7 st8">South Side</text>
	<text transform="matrix(1 0 0 1 19.1116 381.3217)" class="st7 st8">Chicago River</text>
	<g>
		<text transform="matrix(1 0 0 1 1200.2001 59.781)" class="st7 st8">West Side</text>
	</g>
	<g>
		<text transform="matrix(1 0 0 1 1014.0252 91.7357)" class="st7 st8">North Side</text>
	</g>
	<g>
		<text transform="matrix(1 0 0 1 1263.8037 132.3014)"><tspan x="0" y="0" class="st7 st8">World's Columbian  </tspan><tspan x="0" y="44" class="st7 st8">Exposition, 1893 </tspan></text>
	</g>
	<g>
		<text transform="matrix(1 0 0 1 1327.488 263.1643)"><tspan x="0" y="0" class="st7 st8">Century of Progress  </tspan><tspan x="0" y="44" class="st7 st8">Exposition, 1933-1934</tspan></text>
	</g>
	<g>
		<text transform="matrix(1 0 0 1 1362.7253 558.7764)" class="st7 st8">Canal</text>
	</g>
</g>
<style data-made-with="vivus-instant">.DrEnCMzB_0{stroke-dasharray:1902 1904;stroke-dashoffset:1903;animation:DrEnCMzB_draw 2000ms linear 0ms forwards;}.DrEnCMzB_1{stroke-dasharray:201 203;stroke-dashoffset:202;animation:DrEnCMzB_draw 2000ms linear 34ms forwards;}.DrEnCMzB_2{stroke-dasharray:1029 1031;stroke-dashoffset:1030;animation:DrEnCMzB_draw 2000ms linear 68ms forwards;}.DrEnCMzB_3{stroke-dasharray:1029 1031;stroke-dashoffset:1030;animation:DrEnCMzB_draw 2000ms linear 103ms forwards;}.DrEnCMzB_4{stroke-dasharray:1252 1254;stroke-dashoffset:1253;animation:DrEnCMzB_draw 2000ms linear 137ms forwards;}.DrEnCMzB_5{stroke-dasharray:1879 1881;stroke-dashoffset:1880;animation:DrEnCMzB_draw 2000ms linear 172ms forwards;}.DrEnCMzB_6{stroke-dasharray:1006 1008;stroke-dashoffset:1007;animation:DrEnCMzB_draw 2000ms linear 206ms forwards;}.DrEnCMzB_7{stroke-dasharray:1006 1008;stroke-dashoffset:1007;animation:DrEnCMzB_draw 2000ms linear 241ms forwards;}.DrEnCMzB_8{stroke-dasharray:635 637;stroke-dashoffset:636;animation:DrEnCMzB_draw 2000ms linear 275ms forwards;}.DrEnCMzB_9{stroke-dasharray:635 637;stroke-dashoffset:636;animation:DrEnCMzB_draw 2000ms linear 310ms forwards;}.DrEnCMzB_10{stroke-dasharray:635 637;stroke-dashoffset:636;animation:DrEnCMzB_draw 2000ms linear 344ms forwards;}.DrEnCMzB_11{stroke-dasharray:635 637;stroke-dashoffset:636;animation:DrEnCMzB_draw 2000ms linear 379ms forwards;}.DrEnCMzB_12{stroke-dasharray:328 330;stroke-dashoffset:329;animation:DrEnCMzB_draw 2000ms linear 413ms forwards;}.DrEnCMzB_13{stroke-dasharray:24 26;stroke-dashoffset:25;animation:DrEnCMzB_draw 2000ms linear 448ms forwards;}.DrEnCMzB_14{stroke-dasharray:600 602;stroke-dashoffset:601;animation:DrEnCMzB_draw 2000ms linear 482ms forwards;}.DrEnCMzB_15{stroke-dasharray:24 26;stroke-dashoffset:25;animation:DrEnCMzB_draw 2000ms linear 517ms forwards;}.DrEnCMzB_16{stroke-dasharray:975 977;stroke-dashoffset:976;animation:DrEnCMzB_draw 2000ms linear 551ms forwards;}.DrEnCMzB_17{stroke-dasharray:24 26;stroke-dashoffset:25;animation:DrEnCMzB_draw 2000ms linear 586ms forwards;}.DrEnCMzB_18{stroke-dasharray:656 658;stroke-dashoffset:657;animation:DrEnCMzB_draw 2000ms linear 620ms forwards;}.DrEnCMzB_19{stroke-dasharray:24 26;stroke-dashoffset:25;animation:DrEnCMzB_draw 2000ms linear 655ms forwards;}.DrEnCMzB_20{stroke-dasharray:469 471;stroke-dashoffset:470;animation:DrEnCMzB_draw 2000ms linear 689ms forwards;}.DrEnCMzB_21{stroke-dasharray:24 26;stroke-dashoffset:25;animation:DrEnCMzB_draw 2000ms linear 724ms forwards;}.DrEnCMzB_22{stroke-dasharray:218 220;stroke-dashoffset:219;animation:DrEnCMzB_draw 2000ms linear 758ms forwards;}.DrEnCMzB_23{stroke-dasharray:24 26;stroke-dashoffset:25;animation:DrEnCMzB_draw 2000ms linear 793ms forwards;}.DrEnCMzB_24{stroke-dasharray:184 186;stroke-dashoffset:185;animation:DrEnCMzB_draw 2000ms linear 827ms forwards;}.DrEnCMzB_25{stroke-dasharray:24 26;stroke-dashoffset:25;animation:DrEnCMzB_draw 2000ms linear 862ms forwards;}.DrEnCMzB_26{stroke-dasharray:78 80;stroke-dashoffset:79;animation:DrEnCMzB_draw 2000ms linear 896ms forwards;}.DrEnCMzB_27{stroke-dasharray:24 26;stroke-dashoffset:25;animation:DrEnCMzB_draw 2000ms linear 931ms forwards;}.DrEnCMzB_28{stroke-dasharray:86 88;stroke-dashoffset:87;animation:DrEnCMzB_draw 2000ms linear 965ms forwards;}.DrEnCMzB_29{stroke-dasharray:24 26;stroke-dashoffset:25;animation:DrEnCMzB_draw 2000ms linear 1000ms forwards;}@keyframes DrEnCMzB_draw{100%{stroke-dashoffset:0;}}@keyframes DrEnCMzB_fade{0%{stroke-opacity:1;}94.44444444444444%{stroke-opacity:1;}100%{stroke-opacity:0;}}</style></svg>
